<svg width="100%%" height="100%%" viewBox="-787.468 -747.988 1541.5 1537.12" preserveAspectRatio="xMidyMid" xmlns="http://www.w3.org/2000/svg" version="1.1" xmlns:xlink="http://www.w3.org/1999/xlink"><path d="M-100000 0L100000 0M0 -100000L0 100000" stroke="green" stroke-dasharray="20 20"/><path fill="none" stroke="black" stroke-linecap="round"  d="M100 -0L100.17 -1.75
M100.17 -1.75L100.69 -3.52
M100.69 -3.52L101.56 -5.32
M101.56 -5.32L102.79 -7.19
M102.79 -7.19L104.4 -9.13
M104.4 -9.13L106.4 -11.18
M106.4 -11.18L108.83 -13.36
M108.83 -13.36L111.72 -15.7
M111.72 -15.7L115.11 -18.23
M115.11 -18.23L119.03 -20.99
M119.03 -20.99L123.56 -24.02
M123.56 -24.02L128.76 -27.37
M128.76 -27.37L134.72 -31.1
M134.72 -31.1L141.52 -35.28
M141.52 -35.28L149.29 -40
M149.29 -40L158.16 -45.35
M158.16 -45.35L168.31 -51.46
M168.31 -51.46L179.94 -58.47
M179.94 -58.47L193.29 -66.56
M193.29 -66.56L208.67 -75.95
M208.67 -75.95L226.41 -86.91
M226.41 -86.91L246.96 -99.78
M246.96 -99.78L270.79 -114.94
M270.79 -114.94L298.47 -132.89
M298.47 -132.89L330.56 -154.14
M330.56 -154.14L367.53 -179.26
M367.53 -179.26L409.55 -208.68
M409.55 -208.68L456.03 -242.47
M456.03 -242.47L504.96 -279.91
M504.96 -279.91L552.04 -318.72
M552.04 -318.72L590.07 -354.55
M590.07 -354.55L609.84 -381.07
M609.84 -381.07L603.31 -391.79
M603.31 -391.79L568.34 -383.35
M568.34 -383.35L510.84 -357.7
M510.84 -357.7L441.9 -321.06
M441.9 -321.06L372.35 -280.59
M372.35 -280.59L309.3 -241.65
M309.3 -241.65L255.81 -207.15
M255.81 -207.15L212.18 -178.04
M212.18 -178.04L177.37 -154.19
M177.37 -154.19L149.9 -134.97
M149.9 -134.97L128.33 -119.67
M128.33 -119.67L111.4 -107.58
M111.4 -107.58L98.14 -98.14
M98.14 -98.14L87.76 -90.88
M87.76 -90.88L79.68 -85.45
M79.68 -85.45L73.45 -81.58
M73.45 -81.58L68.75 -79.09
M68.75 -79.09L65.33 -77.85
M65.33 -77.85L63.02 -77.83
M63.02 -77.83L61.73 -79.01
M61.73 -79.01L61.37 -81.44
M61.37 -81.44L61.94 -85.26
M61.94 -85.26L63.47 -90.64
M63.47 -90.64L66 -97.86
M66 -97.86L69.67 -107.29
M69.67 -107.29L74.64 -119.45
M74.64 -119.45L81.12 -135.01
M81.12 -135.01L89.42 -154.88
M89.42 -154.88L99.87 -180.17
M99.87 -180.17L112.88 -212.3
M112.88 -212.3L128.84 -252.85
M128.84 -252.85L147.96 -303.37
M147.96 -303.37L170.09 -364.75
M170.09 -364.75L194.19 -436.15
M194.19 -436.15L217.91 -513.37
M217.91 -513.37L237.41 -587.6
M237.41 -587.6L248.11 -646.35
M248.11 -646.35L246.74 -677.92
M246.74 -677.92L233.23 -677.36
M233.23 -677.36L210.78 -648.7
M210.78 -648.7L183.95 -601.69
M183.95 -601.69L156.71 -546.53
M156.71 -546.53L131.49 -490.73
M131.49 -490.73L109.35 -438.58
M109.35 -438.58L90.48 -391.9
M90.48 -391.9L74.63 -351.09
M74.63 -351.09L61.39 -315.84
M61.39 -315.84L50.35 -285.53
M50.35 -285.53L41.1 -259.48
M41.1 -259.48L33.32 -237.08
M33.32 -237.08L26.74 -217.74
M26.74 -217.74L21.13 -201.01
M21.13 -201.01L16.32 -186.49
M16.32 -186.49L12.16 -173.84
M12.16 -173.84L8.53 -162.8
M8.53 -162.8L5.35 -153.14
M5.35 -153.14L2.53 -144.68
M2.53 -144.68L0 -137.26
M0 -137.26L-2.28 -130.75
M-2.28 -130.75L-4.37 -125.04
M-4.37 -125.04L-6.29 -120.05
M-6.29 -120.05L-8.09 -115.69
M-8.09 -115.69L-9.79 -111.91
M-9.79 -111.91L-11.42 -108.64
M-11.42 -108.64L-13 -105.85
M-13 -105.85L-14.55 -103.5
M-14.55 -103.5L-16.08 -101.56
M-16.08 -101.56L-17.63 -99.99
M-17.63 -99.99L-19.2 -98.8
M-19.2 -98.8L-20.82 -97.95
M-20.82 -97.95L-22.5 -97.44
M-22.5 -97.44L-24.25 -97.27
M-24.25 -97.27L-26.1 -97.42
M-26.1 -97.42L-28.08 -97.92
M-28.08 -97.92L-30.19 -98.75
M-30.19 -98.75L-32.47 -99.94
M-32.47 -99.94L-34.95 -101.49
M-34.95 -101.49L-37.65 -103.43
M-37.65 -103.43L-40.61 -105.79
M-40.61 -105.79L-43.87 -108.59
M-43.87 -108.59L-47.49 -111.88
M-47.49 -111.88L-51.51 -115.7
M-51.51 -115.7L-56.01 -120.12
M-56.01 -120.12L-61.06 -125.19
M-61.06 -125.19L-66.75 -131
M-66.75 -131L-73.19 -137.65
M-73.19 -137.65L-80.52 -145.25
M-80.52 -145.25L-88.89 -153.96
M-88.89 -153.96L-98.5 -163.93
M-98.5 -163.93L-109.58 -175.37
M-109.58 -175.37L-122.43 -188.53
M-122.43 -188.53L-137.4 -203.7
M-137.4 -203.7L-154.9 -221.23
M-154.9 -221.23L-175.47 -241.51
M-175.47 -241.51L-199.68 -264.98
M-199.68 -264.98L-228.19 -292.08
M-228.19 -292.08L-261.65 -323.11
M-261.65 -323.11L-300.45 -358.06
M-300.45 -358.06L-344.44 -396.23
M-344.44 -396.23L-392.2 -435.58
M-392.2 -435.58L-440.24 -472.1
M-440.24 -472.1L-482.3 -499.44
M-482.3 -499.44L-509.96 -509.96
M-509.96 -509.96L-515.47 -497.78
M-515.47 -497.78L-495.98 -462.51
M-495.98 -462.51L-455.69 -410.3
M-455.69 -410.3L-403.53 -350.79
M-403.53 -350.79L-348.68 -292.58
M-348.68 -292.58L-297.48 -240.89
M-297.48 -240.89L-252.98 -197.65
M-252.98 -197.65L-215.95 -162.73
M-215.95 -162.73L-185.89 -135.06
M-185.89 -135.06L-161.84 -113.32
M-161.84 -113.32L-142.76 -96.3
M-142.76 -96.3L-127.75 -82.96
M-127.75 -82.96L-116.02 -72.5
M-116.02 -72.5L-106.99 -64.29
M-106.99 -64.29L-100.19 -57.84
M-100.19 -57.84L-95.28 -52.82
M-95.28 -52.82L-92.03 -48.93
M-92.03 -48.93L-90.28 -46
M-90.28 -46L-89.94 -43.87
M-89.94 -43.87L-91 -42.43
M-91 -42.43L-93.51 -41.63
M-93.51 -41.63L-97.59 -41.42
M-97.59 -41.42L-103.44 -41.79
M-103.44 -41.79L-111.36 -42.75
M-111.36 -42.75L-121.76 -44.32
M-121.76 -44.32L-135.19 -46.55
M-135.19 -46.55L-152.4 -49.52
M-152.4 -49.52L-174.36 -53.31
M-174.36 -53.31L-202.29 -58.01
M-202.29 -58.01L-237.67 -63.68
M-237.67 -63.68L-282.16 -70.35
M-282.16 -70.35L-337.25 -77.86
M-337.25 -77.86L-403.6 -85.79
M-403.6 -85.79L-479.76 -93.26
M-479.76 -93.26L-560.46 -98.82
M-560.46 -98.82L-635.59 -100.67
M-635.59 -100.67L-691.71 -97.21
M-691.71 -97.21L-717.4 -88.09
M-717.4 -88.09L-709.16 -74.54
M-709.16 -74.54L-672.82 -58.86
M-672.82 -58.86L-619.26 -43.3
M-619.26 -43.3L-559 -29.3
M-559 -29.3L-499.4 -17.44
M-499.4 -17.44L-444.42 -7.76
M-444.42 -7.76L-395.63 -0
M-395.63 -0L-353.21 6.17
M-353.21 6.17L-316.7 11.06
M-316.7 11.06L-285.39 14.96
M-285.39 14.96L-258.53 18.08
M-258.53 18.08L-235.46 20.6
M-235.46 20.6L-215.57 22.66
M-215.57 22.66L-198.36 24.36
M-198.36 24.36L-183.43 25.78
M-183.43 25.78L-170.44 26.99
M-170.44 26.99L-159.09 28.05
M-159.09 28.05L-149.15 28.99
M-149.15 28.99L-140.44 29.85
M-140.44 29.85L-132.78 30.66
M-132.78 30.66L-126.05 31.43
M-126.05 31.43L-120.14 32.19
M-120.14 32.19L-114.94 32.96
M-114.94 32.96L-110.37 33.74
M-110.37 33.74L-106.38 34.57
M-106.38 34.57L-102.91 35.43
M-102.91 35.43L-99.9 36.36
M-99.9 36.36L-97.32 37.36
M-97.32 37.36L-95.14 38.44
M-95.14 38.44L-93.33 39.61
M-93.33 39.61L-91.86 40.9
M-91.86 40.9L-90.72 42.3
M-90.72 42.3L-89.89 43.84
M-89.89 43.84L-89.38 45.54
M-89.38 45.54L-89.16 47.41
M-89.16 47.41L-89.24 49.47
M-89.24 49.47L-89.63 51.75
M-89.63 51.75L-90.32 54.27
M-90.32 54.27L-91.33 57.07
M-91.33 57.07L-92.68 60.18
M-92.68 60.18L-94.36 63.65
M-94.36 63.65L-96.42 67.52
M-96.42 67.52L-98.89 71.84
M-98.89 71.84L-101.78 76.7
M-101.78 76.7L-105.15 82.15
M-105.15 82.15L-109.05 88.31
M-109.05 88.31L-113.54 95.27
M-113.54 95.27L-118.69 103.18
M-118.69 103.18L-124.59 112.18
M-124.59 112.18L-131.34 122.48
M-131.34 122.48L-139.07 134.3
M-139.07 134.3L-147.93 147.93
M-147.93 147.93L-158.1 163.72
M-158.1 163.72L-169.79 182.08
M-169.79 182.08L-183.25 203.52
M-183.25 203.52L-198.76 228.65
M-198.76 228.65L-216.61 258.15
M-216.61 258.15L-237.06 292.75
M-237.06 292.75L-260.26 333.12
M-260.26 333.12L-286.05 379.6
M-286.05 379.6L-313.65 431.7
M-313.65 431.7L-341.22 487.31
M-341.22 487.31L-365.37 541.68
M-365.37 541.68L-381.11 586.86
M-381.11 586.86L-382.93 612.81
M-382.93 612.81L-367.27 611.24
M-367.27 611.24L-335.12 580.44
M-335.12 580.44L-292.09 526.94
M-292.09 526.94L-245.6 461.91
M-245.6 461.91L-201.69 395.85
M-201.69 395.85L-163.63 335.49
M-163.63 335.49L-132.34 283.8
M-132.34 283.8L-107.39 241.19
M-107.39 241.19L-87.79 206.83
M-87.79 206.83L-72.51 179.46
M-72.51 179.46L-60.58 157.83
M-60.58 157.83L-51.25 140.82
M-51.25 140.82L-43.92 127.55
M-43.92 127.55L-38.12 117.31
M-38.12 117.31L-33.5 109.58
M-33.5 109.58L-29.81 103.96
M-29.81 103.96L-26.84 100.18
M-26.84 100.18L-24.44 98.04
M-24.44 98.04L-22.5 97.45
M-22.5 97.45L-20.91 98.39
M-20.91 98.39L-19.61 100.88
M-19.61 100.88L-18.53 105.07
M-18.53 105.07L-17.6 111.14
M-17.6 111.14L-16.78 119.41
M-16.78 119.41L-16 130.3
M-16 130.3L-15.18 144.4
M-15.18 144.4L-14.21 162.46
M-14.21 162.46L-12.97 185.49
M-12.97 185.49L-11.25 214.74
M-11.25 214.74L-8.79 251.7
M-8.79 251.7L-5.2 297.98
M-5.2 297.98L-0 354.94
M-0 354.94L7.38 422.91
M7.38 422.91L17.45 499.84
M17.45 499.84L30.38 579.6
M30.38 579.6L45.54 651.28
M45.54 651.28L61.36 701.36
M61.36 701.36L75.62 719.46
M75.62 719.46L86.43 703.88
M86.43 703.88L93.02 661.85
M93.02 661.85L95.77 604.7
M95.77 604.7L95.68 542.63
M95.68 542.63L93.78 482.43
M93.78 482.43L90.88 427.55
M90.88 427.55L87.55 379.21
M87.55 379.21L84.12 337.39
M84.12 337.39L80.79 301.51
M80.79 301.51L77.65 270.81
M77.65 270.81L74.76 244.52
M74.76 244.52L72.12 221.95
M72.12 221.95L69.73 202.51
M69.73 202.51L67.59 185.71
M67.59 185.71L65.69 171.14
M65.69 171.14L64.02 158.45
M64.02 158.45L62.55 147.36
M62.55 147.36L61.29 137.65
M61.29 137.65L60.21 129.12
M60.21 129.12L59.32 121.62
M59.32 121.62L58.6 115
M58.6 115L58.05 109.17
M58.05 109.17L57.66 104.02
M57.66 104.02L57.44 99.48
M57.44 99.48L57.37 95.49
M57.37 95.49L57.47 91.97
M57.47 91.97L57.73 88.89
M57.73 88.89L58.15 86.21
M58.15 86.21L58.74 83.89
M58.74 83.89L59.51 81.91
M59.51 81.91L60.46 80.23
M60.46 80.23L61.6 78.85
M61.6 78.85L62.95 77.74
M62.95 77.74L64.52 76.9
M64.52 76.9L66.33 76.31
M66.33 76.31L68.4 75.97
M68.4 75.97L70.75 75.87
M70.75 75.87L73.41 76.02
M73.41 76.02L76.42 76.42
M76.42 76.42L79.81 77.07
M79.81 77.07L83.63 77.98
M83.63 77.98L87.93 79.17
M87.93 79.17L92.78 80.65
M92.78 80.65L98.25 82.44
M98.25 82.44L104.42 84.56
M104.42 84.56L111.41 87.05
M111.41 87.05L119.34 89.93
M119.34 89.93L128.36 93.26
M128.36 93.26L138.65 97.08
M138.65 97.08L150.41 101.45
M150.41 101.45L163.93 106.46
M163.93 106.46L179.51 112.17
M179.51 112.17L197.54 118.69
M197.54 118.69L218.49 126.14
M218.49 126.14L242.92 134.66
M242.92 134.66L271.51 144.36
M271.51 144.36L304.98 155.4
M304.98 155.4L344.13 167.84
M344.13 167.84L389.58 181.66
M389.58 181.66L441.54 196.59
M441.54 196.59L499.17 211.89
M499.17 211.89L559.65 226.11
M559.65 226.11L617.1 236.88
M617.1 236.88L662.22 241.03
M662.22 241.03L683.96 235.51
M683.96 235.51L674.21 219.07
M674.21 219.07L632.88 193.49
M632.88 193.49L568.62 163.05
M568.62 163.05L494.19 132.42
M494.19 132.42L420.65 104.88
M420.65 104.88L354.66 81.88
M354.66 81.88L298.79 63.51
M298.79 63.51L253.1 49.2
M253.1 49.2L216.44 38.16
M216.44 38.16L187.35 29.67
M187.35 29.67L164.4 23.11
M164.4 23.11L146.39 17.97
M146.39 17.97L132.33 13.91
M132.33 13.91L121.48 10.63
M121.48 10.63L113.26 7.92
M113.26 7.92L107.25 5.62
M107.25 5.62L103.16 3.6
M103.16 3.6L100.78 1.76
M100 -0L100.78 1.76
"/><path fill="none" stroke="blue" stroke-linecap="round"  d="M-375 585L-370 595
M-275 485L-270 495
M-475 -15L-473.982 -12.9649
M-275 385L-270 395
M-375 -15L-370 -5.00001
M-175 285L-170 295
M-275 -15L-270 -5
M-173.503 187.994L-170 195
M25 485L30 495
M-375 -415L-370 -405
M-175 -15L-170 -5
M25 385L30 395
M-275 -315L-270 -305
M-75 85L-70 95
M25 285L30 295
M-175 -215L-170 -205
M-75 -15L-70 -5
M25 185L30 195
M-75 -115L-70 -105
M25 85L30 95
M25 -15L30 -5
M25 -115L30 -105
M125 85L129.305 93.611
M25.4915 -214.017L30 -205
M125 -115L130 -105
M225 85L230 95
M125 -315L130 -305
M225 -115L230 -105
M325 85L330 95
M125 -415L130 -405
M425 185L428.992 192.985
M325 -215L330 -205
M525 185L530 195
M225 -615L230 -605
M628.117 191.234L630 195
M426.462 -312.077L430 -305
M525 -315L530 -305
M33.1876 592.875L45 585
M630 195L632.52 193.32
M30 495L45 485
M30 395L45 385
M-270 495L-268.579 494.052
M30 295L45 285
M330 95L345 85
M-270 395L-255 385
M30 195L45 185
M30 95L45 85
M30 -5L45 -15
M330 -205L345 -215
M30 -105L45 -115
M-270 -5L-255 -15
M30 -205L45 -215
M-264.392 -208.739L-255 -215
M-270 -305L-255 -315
M431.809 193.794L445 185
M-170 295L-155 285
M131.09 94.2734L145 85
M-170 195L-155 185
M130 -105L145 -115
M430 -305L445 -315
M-170 -5L-155 -15
M-159.992 -111.672L-155 -115
M130 -305L145 -315
M-461.381 -10.7462L-455 -15
M-170 -205L-155 -215
M130 -405L145 -415
M141.364 -512.576L145 -515
M-457.851 -413.1L-455 -415
M530 195L545 185
M-370 595L-355 585
M230 95L245 85
M-70 95L-55 85
M230 -105L245 -115
M530 -305L545 -315
M-70 -5L-55 -15
M-70 -105L-55 -115
M-370 -5L-355 -15
M230 -605L242.041 -613.027
M-364.093 -308.938L-355 -315
M-370 -405L-361.755 -410.496
M-355 585L-360 575
M-257.925 479.15L-260 475
M-255 385L-260 375
M-455 -15L-460 -25
M-355 -15L-360 -25
M-155 285L-160 275
M45 585L40 575
M-155 185L-160 175
M-255 -15L-260 -25
M-455 -415L-460 -425
M45 485L40 475
M-355 -315L-360 -325
M45 385L40 375
M-155 -15L-160 -25
M-255 -215L-260 -225
M45 285L40 275
M-55 85L-60 75
M-155 -115L-160 -125
M-255 -315L-256.811 -318.623
M45 185L40 175
M-55 -15L-60 -25
M-155 -215L-160 -225
M45 85L40 75
M-55 -115L-59.1223 -123.245
M45 -15L40 -25
M145 85L140 75
M45 -115L40 -125
M45 -215L40 -225
M245 85L240 75
M145 -115L140 -125
M345 85L341.232 77.465
M245 -115L240 -125
M145 -315L140 -325
M445 185L440 175
M145 -415L140 -425
M145 -515L143.666 -517.669
M545 185L540 175
M345 -215L340 -225
M243.094 -618.811L240 -625
M445 -315L441.955 -321.089
M545 -315L540 -325
M40 575L30.7161 581.189
M40 475L25 485
M40 375L25 385
M337.931 76.3795L325 85
M40 275L25 285
M-260 475L-275 485
M40 175L25 185
M-260 375L-275 385
M40 75L25 85
M340 -225L325 -215
M40 -25L25 -15
M40 -125L25 -115
M40 -225L26.0576 -215.705
M-260 -25L-275 -15
M-260 -225L-272.53 -216.647
M-262.154 -323.564L-275 -315
M440 175L425 185
M140 75L125 85
M-160 275L-175 285
M-160 175L-169.178 181.119
M140 -125L125 -115
M-160 -25L-175 -15
M140 -325L125 -315
M-160 -125L-168.496 -119.336
M140 -425L125 -415
M-160 -225L-175 -215
M-460 -25L-475 -15
M-460 -425L-464.644 -421.904
M540 175L525 185
M-360 575L-375 585
M240 75L225 85
M540 -325L525 -315
M240 -125L225 -115
M-60 75L-75 85
M-60 -25L-75 -15
M-60.5233 -124.651L-75 -115
M-360 -25L-375 -15
M240 -625L225 -615
M-360 -325L-371.81 -317.127
M-370.701 -417.866L-375 -415
M65 685L85 675
M65 585L85 575
M65 485L85 475
M65 385L85 375
M465 185L485 175
M-335 485L-315 475
M65 285L78.4153 278.292
M-135 285L-132.232 283.616
M65 185L67.3445 183.828
M265 85L285 75
M-135 185L-115 175
M80.5212 77.2394L85 75
M65 -15L85 -25
M265 -115L285 -125
M-135 -15L-115 -25
M65 -115L74.8346 -119.917
M278.261 -221.631L285 -225
M465 -315L485 -325
M-335 -15L-315 -25
M-135 -115L-115 -125
M65 -215L85 -225
M-521.374 -21.8128L-515 -25
M65 -315L85 -325
M-335 -315L-315 -325
M565 185L585 175
M378.449 178.275L385 175
M-235 385L-215 375
M-231.422 283.211L-215 275
M165 85L185 75
M-35 85L-15 75
M-35 -15L-15 -25
M165 -115L185 -125
M365 -215L385 -225
M-235 -15L-215 -25
M-435 -15L-415 -25
M-235 -215L-215 -225
M165 -415L185 -425
M165 -515L185 -525
M-435 -415L-415 -425
M-515 -25L-515 -20.5443
M-415 -425L-415 -415
M-415 -25L-415 -15
M-315 -325L-315 -315
M-315 -25L-315 -15
M-315 475L-315 485
M-215 -225L-215 -215
M-215 -25L-215 -15
M-215 275L-215 285
M-215 375L-215 385
M-115 -125L-115 -115
M-115 -25L-115 -15
M-115 175L-115 185
M-15 -25L-15 -15
M-15 75L-15 85
M85 -325L85 -315
M85 -225L85 -215
M85 -25L85 -15
M85 75L85 78.3591
M85 375L85 385
M85 475L85 485
M85 575L85 585
M85 675L85 685
M185 -525L185 -515
M185 -425L185 -415
M185 -125L185 -115
M185 75L185 85
M285 -225L285 -215
M285 -125L285 -124.155
M285 75L285 85
M385 -225L385 -215
M385 175L385 180.267
M485 -325L485 -315
M485 175L485 185
M585 175L585 185
M585 185L575 195
M85 685L75 695
M485 185L475 195
M85 585L75 595
M85 485L75 495
M379.472 90.5279L375 95
M85 385L75 395
M285 85L275 95
M79.6487 290.351L75 295
M185 85L175 95
M485 -315L475 -305
M385 -215L375 -205
M-215 385L-225 395
M-315 485L-325 495
M285 -215L275 -205
M185 -115L175 -105
M85 -15L75 -5
M-15 85L-25 95
M-115 185L-125 195
M-215 285L-225 295
M-15 -15L-25 -5
M85 -215L75 -205
M-115 -15L-125 -5
M185 -415L175 -405
M85 -315L75 -305
M-115 -115L-125 -105
M-215 -15L-225 -4.99999
M185 -515L175 -505
M-315 -15L-325 -4.99999
M-215 -215L-225 -205
M-415 -15L-425 -4.99999
M-315 -315L-325 -305
M-415 -415L-425 -405
M-325 495L-335 485
M75 695L65 685
M-225 395L-235 385
M75 595L65 585
M-225 295L-233.416 286.584
M75 495L65 485
M-133.796 286.204L-135 285
M-425 -5.00001L-435 -15
M75 395L65 385
M-125 195L-135 185
M-325 -5.00001L-335 -15
M75 295L65 285
M-225 -5.00001L-235 -15
M67.8644 187.864L65 185
M-25 95L-35 85
M-125 -5.00001L-135 -15
M-25 -5L-35 -15
M-125 -105L-135 -115
M-225 -205L-235 -215
M-325 -305L-335 -315
M-425 -405L-435 -415
M175 95L165 85
M75 -5L65 -15
M275 95L265 85
M70.552 -109.448L65 -115
M475 195L465 185
M375 95L365.743 85.7428
M175 -105L165 -115
M75 -205L65 -215
M575 195L565 185
M267.288 -112.712L265 -115
M75 -305L65 -315
M275 -205L266.169 -213.831
M375 -205L365 -215
M175 -405L165 -415
M175 -505L165 -515
M475 -305L465 -315
M-555 -45L-550 -30
M-355 555L-350 570
M-455 -45L-450 -30
M-255 455L-250.44 468.68
M-255 355L-250 370
M-355 -45L-350 -30
M-455 -445L-450 -430
M-355 -345L-350 -330
M-255 -45L-250 -30
M-155 255L-150 270
M-154.142 157.575L-150 170
M-255 -245L-250 -230
M-155 -45L-150 -30
M45 555L50 570
M-155 -145L-150 -130
M45 455L50 470
M-55 55L-50 70
M45 355L50 370
M-55 -45L-50 -30
M45 255L50 270
M45 155L50 170
M45 55L50 70
M45 -45L50 -30
M45 -145L50 -130
M45 -245L50 -230
M145 55L150 70
M145 -45L147.108 -38.6748
M148.641 -134.077L150 -130
M245 55L250 70
M145 -345L150 -330
M145 -445L150 -430
M245 -145L250 -130
M345 155L349.861 169.583
M149.677 -530.969L150 -530
M445 155L450 170
M345 -245L350 -230
M245 -645L246.852 -639.444
M545 155L550 170
M445 -245L447.83 -236.509
M545 -345L550 -330
M51.3151 669.562L65 665
M50 570L65 565
M50 470L65 465
M50 370L65 365
M-250 370L-235 365
M50 270L65 265
M350.588 169.804L365 165
M50 170L64.8869 165.038
M50 70L65 65
M50 -30L65 -35
M-250 -30L-235 -35
M50 -130L65 -135
M350 -230L365 -235
M-550 -30L-535 -35
M50 -230L65 -235
M-250 -230L-235 -235
M450 170L465 165
M-150 270L-135 265
M-150 170L-135 165
M150 70L165 65
M-150 -30L-135 -35
M150 -130L165 -135
M-450 -30L-435 -35
M-150 -130L-135 -135
M150 -330L158.594 -332.865
M150 -430L165 -435
M150 -530L165 -535
M-450 -430L-435 -435
M-350 570L-335 565
M550 170L565 165
M250 70L265 65
M-50 70L-35 65
M-50 -30L-35 -35
M250 -130L265 -135
M-350 -30L-335 -35
M550 -330L565 -335
M-350 -330L-335 -335
M-335 565L-345 555
M-242.601 457.399L-245 455
M65 665L55 655
M-235 365L-245 355
M65 565L55 555
M-535 -35L-545 -45
M65 465L55 455
M-135 265L-145 255
M-435 -35L-445 -45
M65 365L55 355
M-135 165L-145 155
M-335 -35L-345 -45
M65 265L55 255
M-235 -35L-245 -45
M64.8641 164.864L55 155
M-35 65L-45 55
M-135 -35L-145 -45
M65 65L55 55
M-35 -35L-45 -45
M-135 -135L-145 -145
M-235 -235L-245 -245
M-335 -335L-345 -345
M-435 -435L-445 -445
M165 65L155 55
M65 -35L55 -45
M365 165L355 155
M265 65L255 55
M155.971 -44.0294L155 -45
M65 -135L55 -145
M465 165L455 155
M165 -135L158.802 -141.198
M65 -235L55 -245
M565 165L559.155 159.155
M265 -135L255 -145
M160.857 -339.143L155 -345
M365 -235L355 -245
M165 -435L155 -445
M456.88 -243.12L455 -245
M165 -535L155.701 -544.299
M565 -335L555 -345
M247.864 -645L245 -645
M155 -445L145 -445
M-445 -445L-455 -445
M555 -345L545 -345
M155 -345L145 -345
M-345 -345L-355 -345
M455 -245L445 -245
M355 -245L345 -245
M55 -245L45 -245
M-245 -245L-255 -245
M255 -145L245 -145
M55 -145L45 -145
M-145 -145L-155 -145
M155 -45L145 -45
M55 -45L45 -45
M-45 -45L-55 -45
M-145 -45L-155 -45
M-245 -45L-255 -45
M-345 -45L-355 -45
M-445 -45L-455 -45
M-545 -45L-555 -45
M255 55L245 55
M155 55L145 55
M55 55L45 55
M-45 55L-55 55
M549.059 155L545 155
M455 155L445 155
M355 155L345 155
M55 155L45 155
M-145 155L-152.484 155
M55 255L45 255
M-145 255L-155 255
M55 355L45 355
M-245 355L-255 355
M55 455L45 455
M-245 455L-255 455
M55 555L45 555
M-345 555L-355 555
M55 655L46.7151 655
M620 230L617.689 236.934
M516.177 141.468L515 145
M420 130L415 145
M516.784 -360.352L515 -355
M320 130L315 145
M420 -270L415 -255
M320 -170L315 -155
M217.203 38.3899L215 45
M220 -170L215 -155
M20 430L15 445
M120 30L115 45
M20 330L15 345
M120 -70L115 -55
M20 230L15 245
M20 130L15 145
M220 -570L215 -555
M120 -270L115 -255
M20 30L15 45
M120 -370L115 -355
M20 -70L15 -55
M20 -170L15 -155
M-80 130L-85 145
M-80 30L-85 45
M-180 330L-185 345
M-80 -70L-85 -55
M-180 230L-185 245
M-280 430L-285 445
M-184.968 -55.0951L-185 -55
M-180 -170L-185 -155
M-280 -70L-285 -55
M-280 -270L-285 -255
M-380 -70L-385 -55
M-380 -370L-385 -355
M-480 -70L-485 -55
M-580 -70L-585 -55
M-480 -470L-485 -455
M-680 -70L-682.344 -62.9693
M-285 445L-275 455
M-585 -55L-575 -45
M-185 345L-175.572 354.428
M-485 -55L-475 -45
M-185 245L-175 255
M15 445L25 455
M-385 -55L-375 -45
M15 345L25 355
M-285 -55L-275 -45
M-85 145L-75 155
M15 245L25 255
M-185 -55L-175 -45
M-85 45L-75 55
M15 145L25 155
M-485 -455L-475 -445
M-385 -355L-375 -345
M-285 -255L-275 -245
M-185 -155L-175 -145
M-85 -55L-75 -45
M15 45L25 55
M15 -55L25 -45
M115 45L125 55
M15 -155L25 -145
M115 -55L125 -45
M215 45L225 55
M315 145L325 155
M415 145L425 155
M115 -255L125 -245
M215 -155L225 -145
M515 145L525 155
M115 -355L125 -345
M315 -155L321.716 -148.284
M115.927 -454.073L125 -445
M321.077 -248.923L325 -245
M415 -255L425 -245
M215 -555L225 -545
M215.401 -654.599L225 -645
M515 -355L525 -345
M525 155L527.902 146.294
M425 155L430 140
M525 -345L530 -360
M325 155L330 140
M425 -245L430 -260
M327.335 -152.004L330 -160
M225 55L229.32 42.0389
M325 -245L327.664 -252.992
M25.9366 552.19L30 540
M25 455L30 440
M225 -145L230 -160
M25 355L30 340
M125 55L130 40
M25 255L30 240
M125 -45L130 -60
M25 155L30 140
M25 55L30 40
M125 -245L130 -260
M225 -545L230 -560
M25 -45L30 -60
M125 -345L130 -360
M225 -645L230 -660
M-75 155L-70 140
M25 -145L30 -160
M125 -445L130 -460
M-173.955 351.864L-170 340
M-75 55L-70 40
M-175 255L-170 240
M-75 -45L-70 -60
M-275 455L-270 440
M-175 -45L-172.346 -52.9624
M-175 -145L-170 -160
M-275 -45L-270 -60
M-275 -245L-270 -260
M-375 -45L-370 -60
M-475 -45L-470 -60
M-375 -345L-370 -360
M-575 -45L-570 -60
M-475 -445L-470 -460
M-670.596 -58.2138L-670 -60
M-270 440L-280 430
M-670 -60L-680 -70
M30 540L22.7919 532.792
M-170 340L-180 330
M-570 -60L-580 -70
M30 440L20 430
M-170 240L-180 230
M-470 -60L-480 -70
M30 340L20 330
M-370 -60L-380 -70
M30 240L20 230
M-70 140L-80 130
M-270 -60L-280 -70
M30 140L20 130
M-70 40L-80 30
M30 40L20 30
M-70 -60L-80 -70
M-170 -160L-180 -170
M-270 -260L-280 -270
M-370 -360L-380 -370
M-470 -460L-480 -470
M130 40L120 30
M30 -60L20 -70
M330 140L320 130
M130 -60L120 -70
M30 -160L20 -170
M430 140L420 130
M627.871 237.871L620 230
M230 -160L220 -170
M130 -260L120 -270
M330 -160L320 -170
M130 -360L120 -370
M130 -460L121.888 -468.112
M430 -260L420 -270
M230 -560L220 -570
M530 -360L525.68 -364.32
M230 -660L224.186 -665.814
M660 230L650.086 239.914
M60 630L50 640
M460 130L450 140
M60 530L50 540
M360 130L350 140
M60 430L50 440
M260 130L252.194 137.806
M60 330L50 340
M60 230L50 240
M560 -370L550 -360
M460 -270L450 -260
M160 30L150 40
M60 130L50 140
M-240 430L-250 440
M-340 530L-350 540
M360 -270L350 -260
M260 -170L250 -160
M160 -70L150 -60
M60 30L50 40
M-140 230L-150 240
M-240 330L-250 340
M60 -70L50 -60
M-40 30L-50 40
M60 -170L50 -160
M-40 -70L-50 -60
M160 -370L150 -360
M60 -270L50 -260
M160 -470L150 -460
M-140 -170L-150 -160
M-245.192 -64.8077L-250 -60
M-340 -70L-350 -60
M-240 -270L-250 -260
M-440 -70L-450 -60
M-540 -70L-550 -60
M-340 -370L-350 -360
M-640 -70L-650 -60
M-440 -470L-450 -460
M-350 540L-358.776 526.835
M-550 -60L-560 -75
M50.0001 640L40.0001 625
M-158.574 327.138L-160 325
M50.0001 540L40.0001 525
M-150 240L-160 225
M-350 -60L-360 -75
M50 440L40 425
M50 340L40 325
M-157.891 28.1634L-160 25
M50 240L40 225
M-350 -360L-360 -375
M50 140L40 125
M-150 -160L-160 -175
M50 40L40 25
M50 -60L40 -75
M247.469 136.203L240 125
M50 -160L40 -175
M50 -260L44.3135 -268.53
M450 140L440 125
M250 -160L240 -175
M649.933 239.9L640 225
M450 -260L440 -275
M247.345 -663.983L240 -675
M-650 -60L-660 -75
M-250 440L-260 425
M-250 340L-257.634 328.55
M-450 -60L-460 -75
M-250 -60L-254.095 -66.1425
M-50.4359 139.346L-60 125
M-450 -460L-460 -475
M-50 40L-60 25
M-250 -260L-260 -275
M-50 -60L-60 -75
M150 40L140 25
M150 -60L140 -75
M350 140L340 125
M150 -360L140 -375
M346.628 -165.058L340 -175
M150 -460L140 -475
M350 -260L346.795 -264.807
M550 -360L542.205 -371.692
M40 625L50 620
M40 525L50 520
M640 225L650 220
M40 425L50 420
M-357.379 523.689L-350 520
M40 325L50 320
M440 125L450 120
M-160 325L-156.099 323.05
M40 225L50 220
M240 125L250 120
M-160 225L-150 220
M40 125L50 120
M40 25L50 20
M-160 25L-150 20
M40 -75L50 -80
M240 -175L250 -180
M440 -275L450 -280
M40 -175L50 -180
M-360 -75L-350.995 -79.5027
M-160 -175L-150 -180
M48.038 -279.019L50 -280
M-560 -75L-550 -80
M-360 -375L-350 -380
M240 -675L245.759 -677.879
M544.775 222.613L550 220
M-260 425L-250 420
M340 125L350 120
M-253.817 321.908L-250 320
M-60 125L-50 120
M140 25L150 20
M-60 25L-50 20
M140 -75L150 -80
M340 -175L350 -180
M-60 -75L-50 -80
M-460 -75L-450 -80
M140 -375L150 -380
M-660 -75L-650 -80
M-260 -275L-250 -280
M140 -475L150 -480
M-460 -475L-451.353 -479.324
M-350 520L-340 530
M-250 420L-240 430
M-650 -80L-640 -70
M-250 320L-240 330
M50 620L60 630
M-550 -80L-540 -70
M50 520L60 530
M-450 -80L-440 -70
M-150 220L-140 230
M50 420L60 430
M-349.3 -79.3002L-340 -70
M50 320L60 330
M-150 20L-140.116 29.8843
M-50 120L-43.3885 126.612
M50 220L60 230
M-50 20L-40 30
M50 120L60 130
M-445.555 -475.555L-440 -470
M-350 -380L-340 -370
M-250 -280L-240 -270
M-150 -180L-140 -170
M-50 -80L-40 -70
M50 20L60 30
M50 -80L60 -70
M150 20L160 30
M250 120L260 130
M50 -180L60 -170
M150 -80L160 -70
M350 120L360 130
M50 -280L60 -270
M450 120L460 130
M550 220L555.022 225.022
M250 -180L260 -170
M650 220L660 230
M150 -380L160 -370
M350 -180L357.533 -172.467
M150 -480L160 -470
M358.169 -271.831L360 -270
M450 -280L460 -270
M553.341 -376.659L560 -370
M95 605L80 615
M94.5028 505.331L80 515
M89.5757 408.616L80 415
M395 105L380 115
M81.923 313.718L80 315
M-209.978 408.318L-220 415
M-205 305L-220 315
M95 5L80 15
M380.489 -285.326L380 -285
M95 -95L80 -85
M95 -195L80 -185
M-205 4.99999L-220 15
M95 -295L80 -285
M95 -395L90.528 -392.019
M-205 -195L-220 -185
M-505.001 -94.9991L-520 -85
M-505 -495L-511.529 -490.648
M495 205L488.796 209.136
M195 105L182.58 113.28
M-105 205L-120 215
M495 -295L480 -285
M195 -95L180 -85
M-105 105L-120 115
M-105 4.99999L-120 15
M-105 -95L-120 -85
M-119.384 -185.411L-120 -185
M195 -495L180 -485
M-416.864 -87.0909L-420 -85
M195 -595L180 -585
M-713.047 -89.6352L-716.813 -87.1247
M-405 -395L-420 -385
M595 205L580 215
M295 105L280 115
M-305 505L-320 515
M-5.00003 205L-11.5654 209.377
M-5.00003 105L-17.3898 113.26
M582.737 -386.825L580 -385
M295 -195L280 -185
M-5.00003 4.99999L-20 15
M-5.00003 -95L-20 -85
M-305 4.99998L-314.501 11.3339
M-305 -295L-320 -285
M-605 -95L-620 -85
M-620 -85L-615 -75
M-320 515L-315 525
M-520 -85L-515 -75
M-220 415L-217.604 419.792
M-420 -85L-415 -75
M-220 315L-215 325
M-420 -385L-415 -375
M-220 15L-216.203 22.5945
M-120 215L-115 225
M80 615L85 625
M-320 -285L-315 -275
M-120 115L-115 125
M80 515L85 525
M-220 -185L-215 -175
M-120 15L-115 25
M80 415L85 425
M-219.328 -283.656L-215 -275
M-120 -85L-115 -75
M-16.6103 121.779L-15 125
M80 315L82.5074 320.015
M-120 -185L-115 -175
M-20 15L-15 25
M-20 -85L-15 -75
M80 15L85 25
M80 -85L85 -75
M80 -185L85 -175
M80 -285L85 -275
M180 -85L185 -75
M280 115L285 125
M84.3901 -376.22L85 -375
M380 115L385 125
M280 -185L285 -175
M180 -485L185 -475
M180 -585L185 -575
M580 215L585 225
M380 -285L385 -275
M480 -285L485 -275
M580 -385L585 -375
M585 225L595 215
M85 625L95 615
M85 525L94.8138 515.186
M85 425L90.3367 419.663
M385 125L395 115
M285 125L295 115
M192.965 117.035L195 115
M-315 525L-305 515
M-10.8437 220.844L-5 215
M485 -275L495 -285
M585 -375L595 -385
M-215 325L-205 315
M-115 225L-105 215
M-15 125L-5 115
M85 25L95 15
M185 -75L195 -85
M285 -175L295 -185
M385 -275L395 -285
M-115 125L-105 115
M-15 25L-5 15
M85 -75L95 -85
M-115 25L-105 15
M-15 -75L-5 -85
M85 -175L95 -185
M-212.922 22.9216L-205 15
M-115 -75L-105 -85
M85 -275L95 -285
M-115 -175L-112.075 -177.925
M85 -375L95 -385
M185 -475L195 -485
M-215 -175L-205 -185
M185 -575L195 -585
M-415 -75L-405 -85
M-215 -275L-212.671 -277.329
M-515 -75L-505 -85
M-315 -275L-305 -285
M-615 -75L-605 -85
M-711.542 -78.4576L-705 -85
M-415 -375L-405 -385
M-507.195 -482.805L-505 -485
M595 215L595 205
M595 -385L595 -389.784
M495 210.783L495 205
M495 -285L495 -295
M395 115L395 105
M395 -285L395 -293.77
M295 115L295 105
M295 -185L295 -195
M195 115L195 105
M195 -85L195 -95
M195 -485L195 -495
M195 -585L195 -595
M95 615L95 605
M95 15L95 5
M95 -85L95 -95
M95 -185L95 -195
M95 -285L95 -295
M95 -385L95 -395
M-5 215L-5 205
M-5 115L-5 105
M-5 15L-5 5
M-5 -85L-5 -95
M-105 215L-105 205
M-105 115L-105 105
M-105 15L-105 5
M-105 -85L-105 -95
M-205 315L-205 305
M-205 15L-205 5
M-205 -185L-205 -195
M-305 515L-305 505
M-305 12.5174L-305 5
M-305 -285L-305 -295
M-405 -85L-405 -85.9273
M-405 -385L-405 -395
M-505 -85L-505 -94.999
M-505 -485L-505 -495
M-605 -85L-605 -95
M-705 -85L-705 -92.492
M646.822 202.119L635 210
M50 600L36.5859 608.943
M50 500L35 510
M50 400L35 410
M350 100L335 110
M50 300L35 310
M50 200L35 210
M-250 400L-265 410
M50 100L35 110
M350 -200L335 -190
M50 -7.89449e-07L35 10
M50 -100L35 -90
M50 -200L35 -190
M-250 -1.03317e-05L-265 9.99999
M-250 -200L-253.202 -197.866
M-250 -300L-265 -290
M-552.584 -98.2774L-565 -90
M150 100L148.75 100.833
M-150 300L-165 310
M-150 200L-165 210
M450 -300L435 -290
M150 -100L135 -90
M-150 -1.03317e-05L-165 9.99999
M145.566 -297.044L135 -290
M150 -400L135 -390
M-150 -200L-165 -190
M150 -500L135 -490
M-462.63 -91.5799L-465 -90
M550 200L535 210
M250 100L235 110
M-50 100L-65 110
M250 -200L235 -190
M-50 -1.03317e-05L-65 9.99999
M-50 -100L-65 -90
M-350 -1.98739e-05L-358.172 5.44822
M238.241 -592.16L235 -590
M-350 -300L-353.483 -297.678
M-650.361 -99.7593L-665 -90
M-350 -400L-365 -390
M-265 410L-260 415
M-665 -90L-660 -85
M37.2948 612.295L40 615
M-565 -90L-560 -85
M-165 310L-160 315
M35 510L40 515
M-465 -90L-460 -85
M-165 210L-160 215
M35 410L40 415
M-265 10L-260 15
M35 310L40 315
M-165 10L-160 15
M-65 110L-60 115
M35 210L40 215
M-65 10L-60 15
M35 110L40 115
M-365 -390L-360 -385
M-265 -290L-260 -285
M-165 -190L-160 -185
M-65 -90L-60 -85
M35 10L40 15
M35 -90L40 -85
M235 110L240 115
M35 -190L40 -185
M135 -90L140 -85
M335 110L340 115
M435.406 110.406L440 115
M535 210L540 215
M135 -290L140 -285
M235 -190L240 -185
M635 210L640 215
M135 -390L140 -385
M335 -190L340 -185
M135 -490L140 -485
M435 -290L440 -285
M235 -590L237.408 -587.592
M40 615L50 610
M40 515L50 510
M640 215L650 210
M40 415L50 410
M-351.669 510.835L-350 510
M40 315L50 310
M440 115L443.286 113.357
M-160 315L-150 310
M40 215L50 210
M240 115L250 110
M-160 215L-150 210
M40 115L50 110
M40 15L50 10
M-160 15L-150 9.99999
M40 -85L50 -90
M240 -185L250 -190
M440 -285L450 -290
M40 -185L50 -190
M-160 -185L-150 -190
M-560 -85L-550 -90
M-360 -385L-350 -390
M540 215L550 210
M-260 415L-250 410
M340 115L350 110
M-60 115L-50 110
M-60 15L-50 9.99999
M140 -85L150 -90
M340 -185L350 -190
M-260 15L-250 9.99999
M-60 -85L-50 -90
M140 -285L141.243 -285.621
M-460 -85L-450 -90
M140 -385L150 -390
M-660 -85L-650 -90
M-260 -285L-250 -290
M140 -485L150 -490
M650 210L650 204.086
M550 210L550 200
M450 -290L450 -300
M350 110L350 100
M350 -190L350 -200
M250 110L250 100
M250 -190L250 -200
M150 101.298L150 100
M150 -90L150 -100
M150 -390L150 -400
M150 -490L150 -500
M50 610L50 600
M50 510L50 500
M50 410L50 400
M50 310L50 300
M50 210L50 200
M50 110L50 100
M50 10L50 -0
M50 -90L50 -100
M50 -190L50 -200
M-50 110L-50 100
M-50 10L-50 -0
M-50 -90L-50 -100
M-150 310L-150 300
M-150 210L-150 200
M-150 10L-150 -1.42109e-14
M-150 -190L-150 -200
M-250 410L-250 400
M-250 10L-250 -1.42109e-14
M-250 -194.84L-250 -200
M-250 -290L-250 -300
M-350 510L-350 507.077
M-350 6.59993L-350 -2.84217e-14
M-350 -293.981L-350 -300
M-350 -390L-350 -400
M-450 -90L-450 -90.3411
M-550 -90L-550 -98.0993
M-650 -90L-650 -99.7816
M-382.64 608.68L-380 610
M19.0174 509.509L20 510
M-190 305L-180 310
M10 405L20 410
M-185.54 207.23L-180 210
M10 305L20 310
M-590 -95L-580 -90
M10 205L20 210
M-190 5.00001L-180 10
M10 105L20 110
M10 5L20 10
M210 105L220 110
M-190 -195L-180 -190
M10 -95L20 -90
M410 105L420 110
M610 205L620 210
M-390 -395L-380 -390
M17.8404 -191.08L20 -190
M210 -95L220 -90
M410 -295L420 -290
M210 -495L211.965 -494.017
M210 -595L220 -590
M-290 505L-280 510
M-290 405L-280 410
M-690 -95L-680 -90
M-90 205L-87.4736 206.263
M-487.6 -93.8002L-480 -90
M-290 5.00002L-280 10
M-90 105L-80 110
M-90 5.00001L-80 10
M-90 -95L-80 -90
M310 105L320 110
M510 205L520 210
M-290 -295L-280 -290
M110 -95L120 -90
M-490 -495L-480 -490
M110 -295L120 -290
M310 -195L320 -190
M110 -395L120 -390
M510 -295L518.257 -290.871
M620 210L615 220
M520 210L516.963 216.073
M420 110L415 120
M320 110L315 120
M420 -290L415 -280
M220 110L215 120
M20 510L19.3181 511.364
M320 -190L315 -180
M20 410L15 420
M220 -90.0001L215 -80.0001
M20 310L15 320
M119.939 10.1219L115 20
M20 210L15 220
M120 -90L115 -80
M20 110L15 120
M20 10L15 20
M120 -290L115 -280
M20 -90L15 -80
M-79.9999 110L-84.9999 120
M-180 310L-185 320
M-280 510L-280.047 510.094
M220 -590L215 -580
M120 -390L115 -380
M20 -190L15 -180
M-79.9999 10L-84.9999 20
M-180 210L-185 220
M-280 410L-285 420
M-380 610L-381.324 612.649
M-79.9999 -90L-84.9999 -80
M-180 10.0001L-185 20.0001
M-180 -190L-185 -180
M-280 10.0001L-282.64 15.2795
M-280 -290L-285 -280
M-383.317 -83.3658L-385 -79.9999
M-480 -89.9999L-485 -79.9999
M-380 -390L-385 -380
M-580 -89.9998L-585 -79.9998
M-480 -490L-485 -480
M-680 -89.9998L-685 -79.9998
M-286.719 519.427L-300 515
M-285 420L-300 415
M15 420L6.76603 417.255
M15 320L-1.43885e-05 315
M15 220L-1.07737e-05 215
M15 120L-7.15882e-06 115
M-585 -80L-600 -85
M615 220L600 215
M315 120L300 115
M15 20L-3.54398e-06 15
M15 -80L7.08611e-08 -85
M15 -180L14.2662 -180.245
M-285 -280L-300 -285
M315 -180L300 -185
M609.343 -381.886L600 -385
M-185 320L-200 315
M-185 220L-191.984 217.672
M-185 20L-200 15
M-485 -80L-500 -85
M415 120L400 115
M115 20L100 15
M115 -80L100 -85
M-185 -180L-200 -185
M101.609 -184.464L100 -185
M115 -280L100 -285
M-485 -480L-500 -485
M415 -280L400 -285
M115 -380L100 -385
M-93.6566 217.114L-100 215
M-85 120L-100 115
M-685 -80.0001L-700 -85.0001
M215 120L200 115
M-85 20L-100 15
M-385 -80L-400 -85
M-85 -80L-100 -85
M215 -80L200 -85
M-385 -380L-400 -385
M507.929 -282.357L500 -285
M208.341 -482.22L200 -485
M215 -580L200 -585
M600 215L610 205
M502.36 212.64L510 205
M400 115L410 105
M5.88245 409.118L10 405
M300 115L310 105
M-4.01944e-14 315L10 305
M200 115L210 105
M-300 515L-290 505
M-1.97832e-14 215L10 205
M500 -285L510 -295
M600 -385L604.627 -389.627
M-300 415L-290 405
M-200 315L-190 305
M-100 215L-90 205
M-1.57009e-14 115L10 105
M100 15L108.79 6.20953
M200 -85L210 -95
M300 -185L310 -195
M400 -285L410 -295
M-100 115L-90 105
M-7.85046e-15 15L10 5
M100 -85L110 -95
M-100 15L-90 5
M0 -85L10 -95
M100 -185L103.068 -188.068
M-200 15L-190 5.00001
M-100 -85L-90 -95
M100 -285L110 -295
M-298.346 13.3462L-290 5.00001
M100 -385L110 -395
M200 -485L210 -495
M-200 -185L-190 -195
M200 -585L210 -595
M-400 -85L-399.679 -85.3213
M-500 -85L-490.968 -94.0322
M-300 -285L-290 -295
M-600 -85L-590 -95
M-700 -85L-690 -95
M-400 -385L-390 -395
M-500 -485L-490 -495
M605 200L615 195
M4.99999 400L15 395
M5 300L15 295
M405 100L405.677 99.6614
M-195 300L-185 295
M5 200L15 195
M205 100L215 95
M5 100L15 95
M5 -0L15 -5
M205 -100L215 -105
M-195 -7.56103e-06L-185 -5.00001
M5 -100L15 -105
M410.025 -302.513L415 -305
M-395 -1.51221e-05L-385 -5.00001
M-195 -200L-185 -205
M205 -500L215 -505
M205 -600L215 -605
M-395 -400L-385 -405
M505 200L515 195
M-295 500L-285 495
M-295 400L-285 395
M305 100L315 95
M-95 200L-85 195
M-95 100L-85 95
M-95 -7.56103e-06L-85 -5.00001
M105 -100L115 -105
M305 -200L315 -205
M505 -300L515 -305
M-295 -1.51221e-05L-285 -5.00001
M-95 -100L-85 -105
M105 -200L108.636 -201.818
M105 -300L115 -305
M105 -400L115 -405
M-295 -300L-285 -305
M-495 -500L-490.149 -502.425
M-285 495L-290 485
M-285 395L-289.471 386.058
M-385 -5.00002L-390 -15
M-185 295L-190 285
M-285 -5.00002L-290 -15
M15 395L10 385
M-85 195L-90 185
M-185 -5.00001L-190 -15
M-385 -405L-390 -415
M15 295L10 285
M-85 95L-90 85
M-285 -305L-290 -315
M15 195L10 185
M-85 -5.00001L-90 -15
M-185 -205L-190 -215
M15 95L10 85
M-85 -105L-90 -115
M15 -5L10 -15
M110.942 86.8831L110 85
M15 -105L10 -115
M110.247 -14.5069L110 -15
M215 95L210 85
M115 -105L113.102 -108.796
M112.195 -210.609L110 -215
M315 95L310 85
M215 -105L210 -115
M115 -305L110 -315
M411.476 187.951L410 185
M115 -405L110 -415
M515 195L510 185
M315 -205L310 -215
M215 -505L210 -515
M615 195L610 185
M412.198 -210.605L410 -215
M215 -605L210 -615
M415 -305L414.842 -305.315
M515 -305L510 -315
M610 185L600 190
M410 185L406.79 186.605
M10.0001 385L3.6107 388.195
M10 285L4.00062e-05 290
M-197.081 388.541L-200 390
M210 84.9999L200 90
M10 185L2.69957e-05 190
M-190 285L-200 290
M10 85L1.39853e-05 90
M410 -215L400 -210
M210 -115L200 -110
M10 -15L9.74754e-07 -10
M9.99999 -115L-1.20357e-05 -110
M-190 -15L-200 -9.99995
M-390 -14.9999L-400 -9.99991
M-190 -215L-200 -210
M210 -515L200 -510
M210 -615L200 -610
M-390 -415L-400 -410
M510 185L500 190
M-290 485L-300 490
M310 84.9999L300 90
M110 85L108.192 85.9038
M-90 185L-100 190
M110 -15L100 -10
M-90 85L-100 90
M510 -315L500 -310
M310 -215L300 -210
M-90 -15L-100 -9.99995
M110 -215L100 -210
M-90 -115L-100 -110
M-290 -14.9999L-300 -9.99991
M110 -315L100 -310
M110 -415L99.9999 -410
M-290 -315L-300 -310
M-300 490L-295 500
M-295.902 398.197L-295 400
M-400 -10L-395 -6.11266e-06
M-200 390L-199.116 391.768
M-200 290L-195 300
M-300 -10L-295 -4.49439e-06
M-497.636 -505.273L-495 -500
M-400 -410L-395 -400
M-200 -10L-195 -2.87612e-06
M-100 190L-95 200
M4.86267 399.725L5 400
M-300 -310L-295 -300
M-100 90L-95 100
M-2.84236e-06 290L5 300
M-200 -210L-195 -200
M-100 -10L-95 -1.25785e-06
M-1.8949e-06 190L5 200
M-100 -110L-95 -100
M-9.47452e-07 90L5 100
M0 -10L5 3.60423e-07
M9.47452e-07 -110L5 -100
M100 -10L102.003 -5.99371
M103.885 -102.23L105 -100
M200 90L205 100
M100 -210L105 -200
M100 -310L105 -300
M200 -110L205 -100
M300 90L305 100
M100 -410L105 -400
M404.652 99.3041L405 100
M300 -210L305 -200
M500 190L505 200
M200 -510L205 -500
M200 -610L205 -600
M400 -210L402.965 -204.07
M600 190L605 200
M500 -310L505 -300
M75 655L93.573 650.357
M75 555L95 550
M-325 555L-312.056 551.764
M75 455L92.1046 450.724
M-325 455L-305 450
M75 355L85.3521 352.412
M75 255L75.8876 254.778
M475 155L495 150
M75 55L95 50
M75 -45L95 -50
M-325 -45L-305 -50
M75 -145L86.4932 -147.873
M75 -245L95 -250
M-306.205 -249.699L-305 -250
M75 -345L95 -350
M-325 -345L-305 -350
M-225 355L-205 350
M-212.869 251.967L-205 250
M175 55L195 50
M-225 -45L-205 -50
M175 -145L195 -150
M-625 -45L-605 -50
M575 -345L581.716 -346.679
M-225 -245L-205 -250
M175 -445L195 -450
M175 -545L195 -550
M-125 255L-113.843 252.211
M291.364 150.909L295 150
M-125 155L-105 150
M275 -145L295 -150
M-525 -45L-505 -50
M-125 -145L-105 -150
M-8.83927 250.96L-4.99999 250
M375 155L395 150
M-14.7483 152.437L-4.99999 150
M-25 55L-4.99999 50
M-25 -45L-4.99999 -50
M-425 -45L-405 -50
M375 -245L395 -250
M-425 -445L-409.642 -448.839
M-308.124 546.876L-315 540
M-305 450L-315 440
M93.6549 648.655L85 640
M-205 350L-215 340
M-605 -50L-615 -60
M95 550L85 540
M-205 250L-209.161 245.839
M-505 -50L-515 -60
M91.9026 446.903L85 440
M-109.761 245.239L-115 240
M-405 -50L-415 -60
M-5 250L-9.18146 245.819
M-105 150L-115 140
M-305 -50L-315 -60
M-5 150L-15 140
M-205 -50L-215 -60
M-5 50L-15 40
M-305 -250L-315 -260
M95 50L85 40
M-5 -50L-15 -60
M-105 -150L-115 -160
M-205 -250L-215 -260
M-305 -350L-315 -360
M295 150L285 140
M195 50L185 40
M95 -50L85 -60
M395 150L385 140
M89.6247 -155.375L85 -160
M495 150L485 140
M195 -150L185.346 -159.654
M95 -250L85 -260
M295 -150L285 -160
M95 -350L85 -360
M395 -250L385 -260
M195 -450L185 -460
M195 -550L185 -560
M590.232 -354.768L585 -360
M85.0001 640L70.0001 645
M85.0001 540L70.0001 545
M85.0001 440L70.0001 445
M84.3518 340.216L70.0001 345
M385 140L370 145
M74.6354 243.455L70 245
M-215 340L-230 345
M85 40L70 45
M85 -60L70 -55
M385 -260L370 -255
M85 -160L70 -155
M-215 -60L-230 -55
M85 -260L70 -255
M-515 -60L-530 -55
M85 -360L77.063 -357.354
M-215 -260L-230 -255
M485 140L470 145
M-115 240L-130 245
M185 40L170 45
M-115 140L-130 145
M179.358 -58.1195L170 -55
M474.262 -256.421L470 -255
M-115 -160L-130 -155
M-415 -60L-430 -55
M185 -460L170 -455
M185 -560L170 -555
M-421.481 -457.84L-430 -455
M-315 540L-330 545
M-315 440L-318.312 441.104
M285 140L271.716 144.428
M-15 140L-15.4276 140.143
M-15 40L-30 45
M285 -160L270 -155
M-15 -60L-30 -55
M585 -360L570 -355
M-315 -60L-330 -55
M-615 -60L-630 -55
M-315 -260L-316.059 -259.647
M-315 -360L-330 -355
M-630 -55L-625 -45
M-330 545L-325 555
M-325.101 454.798L-325 455
M-530 -55L-525 -45
M-430 -55L-425 -45
M-230 345L-225 355
M-330 -55L-325 -45
M-130 245L-125 255
M70 645L75 655
M-430 -455L-425 -445
M-230 -55L-225 -45
M-130 145L-125 155
M70 545L75 555
M-330 -355L-325 -345
M70 445L75 455
M-230 -255L-225 -245
M70 345L75 355
M-130 -155L-125 -145
M-30 45L-25 55
M70 245L75 255
M-30 -55L-25 -45
M70 45L75 55
M70 -55L75 -45
M70 -155L75 -145
M170 45L175 55
M70 -255L75 -245
M170 -55L170.969 -53.0625
M73.4825 -348.035L75 -345
M172.21 -150.58L175 -145
M370 145L375 155
M270 -155L275 -145
M170 -455L175 -445
M470 145L475 155
M170 -555L175 -545
M370 -255L375 -245
M470 -255L470.666 -253.669
M570 -355L575 -345
M-195 370L-187.694 373.653
M14.1424 474.571L15 475
M-195 270L-185 275
M5.00001 370L15 375
M5 270L15 275
M-395 -30L-385 -25
M5 170L15 175
M-195 -30L-185 -25
M5 70L15 75
M5 -30L15 -25
M205 70L215 75
M405 170L415 175
M-195 -230L-185 -225
M5 -130L15 -125
M-395 -430L-385 -425
M205 -130L215 -125
M405 -230L415 -225
M205 -530L215 -525
M205 -630L215 -625
M-295 470L-285 475
M-495 -30L-485 -25
M-95 170L-85 175
M-295 -30L-285 -25
M-95 70L-85 75
M-95 -30L-85 -25
M105 70L115 75
M-95 -130L-85 -125
M105 -30L115 -25
M305 70L315 75
M505 170L515 175
M-295 -330L-285 -325
M105 -230L115 -225
M105 -330L115 -325
M305 -230L315 -225
M105.733 -429.633L115 -425
M505 -330L515 -325
M515 175L520 170
M415 175L420 170
M15 475L20 470
M15 375L20 370
M315 75L319.636 70.3641
M15 275L20 270
M215 75L220 70
M-285 475L-280 470
M15 175L20 170
M115 75L120 70
M415 -225L420 -230
M515 -325L520 -330
M-281.625 371.625L-280 370
M-185 275L-180 270
M-85 175L-80 170
M15 75L20 70
M115 -25L120 -30
M215 -125L220 -130
M315 -225L320 -230
M-85 75L-80 70
M15 -25L20 -30
M-85 -25L-80 -30
M15 -125L20 -130
M115 -225L119.747 -229.747
M-185 -25L-180 -30
M-85 -125L-80 -130
M115 -325L120 -330
M-285 -25L-280 -30
M-180.139 -129.861L-180 -130
M115 -425L120 -430
M215 -525L220 -530
M-385 -25L-380 -30
M-185 -225L-180 -230
M215 -625L220 -630
M-485 -25L-480 -30
M-283.091 -226.909L-280 -230
M-285 -325L-280 -330
M-382.029 -327.971L-380 -330
M-385 -425L-382.452 -427.548
M-582.364 -34.7281L-585 -40
M-280 470L-285 460
M-280 370L-280.343 369.314
M-480 -30L-485 -40
M-182.384 365.232L-185 360
M-380 -30L-385 -40
M-180 270L-185 260
M-280 -30L-285 -40
M20 470L15 460
M-380 -330L-385 -340
M20 370L15 360
M-80 170L-85 160
M-180 -30L-185 -40
M-280 -230L-285 -240
M20 270L15 260
M-80 70L-85 60
M-180 -130L-185 -140
M-280 -330L-285 -340
M20 170L15 160
M-80 -30L-85 -40
M-180 -230L-185 -240
M20 70L15 60
M-80 -130L-85 -140
M20 -30L15 -40
M120 70L115 60
M20 -130L15 -140
M120 -30L115 -40
M220 70L215 60
M119.914 -230.172L115 -240
M220 -130L215 -140
M120 -330L115 -340
M420 170L415 160
M120 -430L115 -440
M520 170L515 160
M320 -230L315 -240
M220 -530L215 -540
M420 -230L415 -240
M220 -630L215 -640
M520 -330L515 -340
M515 160L505 170
M415 160L405 170
M15 460L12.5551 462.445
M308.348 66.6525L305 70
M15 360L5.00003 370
M215 60L205 70
M15 260L5.00002 270
M515 -340L505 -330
M415 -240L405 -230
M115 60L105 70
M15 160L5.00001 170
M-185 360L-195 370
M-285 460L-295 470
M315 -240L305 -230
M215 -140L205 -130
M115 -40L105 -30
M15 60L5.00001 70
M-85 160L-95 170
M-185 260L-195 270
M15 -40L5 -30
M-85 60L-95 70
M115 -240L105 -230
M15 -140L4.99999 -130
M-85 -40L-95 -30
M115 -340L105 -330
M-85 -140L-95 -130
M-185 -40L-195 -30
M215 -540L205 -530
M115 -440L106.48 -431.48
M-185 -140L-187.999 -137.001
M-285 -40L-295 -30
M215 -640L205 -630
M-185 -240L-195 -230
M-385 -40L-395 -30
M-285 -240L-290.699 -234.301
M-485 -40L-495 -30
M-285 -340L-295 -330
M-585 -40L-588.781 -36.2189
M-385 -340L-389.306 -335.694
M-390.676 -434.324L-395 -430
"/></svg>